<mxfile host="app.diagrams.net" agent="Mozilla/5.0 (X11; Linux x86_64; rv:133.0) Gecko/20100101 Firefox/133.0" version="28.0.3">
  <diagram id="C5RBs43oDa-KdzZeNtuy" name="Page-1">
    <mxGraphModel dx="1026" dy="520" grid="1" gridSize="10" guides="1" tooltips="1" connect="1" arrows="1" fold="1" page="1" pageScale="1" pageWidth="827" pageHeight="1169" math="0" shadow="0">
      <root>
        <mxCell id="WIyWlLk6GJQsqaUBKTNV-0" />
        <mxCell id="WIyWlLk6GJQsqaUBKTNV-1" parent="WIyWlLk6GJQsqaUBKTNV-0" />
        <mxCell id="FqUkORN_wXXFwQLzwsCR-4" style="edgeStyle=none;shape=connector;rounded=0;orthogonalLoop=1;jettySize=auto;html=1;shadow=0;strokeColor=default;strokeWidth=1;align=center;verticalAlign=middle;fontFamily=Helvetica;fontSize=12;fontColor=default;labelBackgroundColor=none;endArrow=block;endFill=0;endSize=8;" edge="1" parent="WIyWlLk6GJQsqaUBKTNV-1" source="FqUkORN_wXXFwQLzwsCR-0" target="FqUkORN_wXXFwQLzwsCR-3">
          <mxGeometry relative="1" as="geometry" />
        </mxCell>
        <mxCell id="FqUkORN_wXXFwQLzwsCR-0" value="Start" style="ellipse;whiteSpace=wrap;html=1;fontSize=12;" vertex="1" parent="WIyWlLk6GJQsqaUBKTNV-1">
          <mxGeometry x="250" y="40" width="120" height="50" as="geometry" />
        </mxCell>
        <mxCell id="FqUkORN_wXXFwQLzwsCR-6" style="edgeStyle=none;shape=connector;rounded=0;orthogonalLoop=1;jettySize=auto;html=1;shadow=0;strokeColor=default;strokeWidth=1;align=center;verticalAlign=middle;fontFamily=Helvetica;fontSize=12;fontColor=default;labelBackgroundColor=none;endArrow=block;endFill=0;endSize=8;" edge="1" parent="WIyWlLk6GJQsqaUBKTNV-1" source="FqUkORN_wXXFwQLzwsCR-3" target="FqUkORN_wXXFwQLzwsCR-5">
          <mxGeometry relative="1" as="geometry" />
        </mxCell>
        <mxCell id="FqUkORN_wXXFwQLzwsCR-7" value="No" style="edgeLabel;html=1;align=center;verticalAlign=middle;resizable=0;points=[];fontFamily=Helvetica;fontSize=12;fontColor=default;labelBackgroundColor=none;" vertex="1" connectable="0" parent="FqUkORN_wXXFwQLzwsCR-6">
          <mxGeometry x="-0.2593" y="-3" relative="1" as="geometry">
            <mxPoint y="-13" as="offset" />
          </mxGeometry>
        </mxCell>
        <mxCell id="FqUkORN_wXXFwQLzwsCR-9" style="edgeStyle=none;shape=connector;rounded=0;orthogonalLoop=1;jettySize=auto;html=1;shadow=0;strokeColor=default;strokeWidth=1;align=center;verticalAlign=middle;fontFamily=Helvetica;fontSize=12;fontColor=default;labelBackgroundColor=none;endArrow=block;endFill=0;endSize=8;" edge="1" parent="WIyWlLk6GJQsqaUBKTNV-1" source="FqUkORN_wXXFwQLzwsCR-3" target="FqUkORN_wXXFwQLzwsCR-8">
          <mxGeometry relative="1" as="geometry" />
        </mxCell>
        <mxCell id="FqUkORN_wXXFwQLzwsCR-10" value="Yes" style="edgeLabel;html=1;align=center;verticalAlign=middle;resizable=0;points=[];fontFamily=Helvetica;fontSize=12;fontColor=default;labelBackgroundColor=none;" vertex="1" connectable="0" parent="FqUkORN_wXXFwQLzwsCR-9">
          <mxGeometry x="-0.3086" y="1" relative="1" as="geometry">
            <mxPoint x="9" y="-9" as="offset" />
          </mxGeometry>
        </mxCell>
        <mxCell id="FqUkORN_wXXFwQLzwsCR-3" value="Login Success" style="rhombus;whiteSpace=wrap;html=1;fontFamily=Helvetica;fontSize=12;fontColor=default;labelBackgroundColor=none;" vertex="1" parent="WIyWlLk6GJQsqaUBKTNV-1">
          <mxGeometry x="250" y="130" width="120" height="80" as="geometry" />
        </mxCell>
        <mxCell id="FqUkORN_wXXFwQLzwsCR-5" value="Show Error and Retry Login" style="rounded=1;whiteSpace=wrap;html=1;fontFamily=Helvetica;fontSize=12;fontColor=default;labelBackgroundColor=none;" vertex="1" parent="WIyWlLk6GJQsqaUBKTNV-1">
          <mxGeometry x="90" y="150" width="120" height="40" as="geometry" />
        </mxCell>
        <mxCell id="FqUkORN_wXXFwQLzwsCR-12" value="" style="edgeStyle=none;shape=connector;rounded=0;orthogonalLoop=1;jettySize=auto;html=1;shadow=0;strokeColor=default;strokeWidth=1;align=center;verticalAlign=middle;fontFamily=Helvetica;fontSize=12;fontColor=default;labelBackgroundColor=none;endArrow=block;endFill=0;endSize=8;" edge="1" parent="WIyWlLk6GJQsqaUBKTNV-1" source="FqUkORN_wXXFwQLzwsCR-8" target="FqUkORN_wXXFwQLzwsCR-11">
          <mxGeometry relative="1" as="geometry" />
        </mxCell>
        <mxCell id="FqUkORN_wXXFwQLzwsCR-8" value="Visit Admin Dashboard" style="rounded=1;whiteSpace=wrap;html=1;fontFamily=Helvetica;fontSize=12;fontColor=default;labelBackgroundColor=none;" vertex="1" parent="WIyWlLk6GJQsqaUBKTNV-1">
          <mxGeometry x="440" y="150" width="120" height="40" as="geometry" />
        </mxCell>
        <mxCell id="FqUkORN_wXXFwQLzwsCR-26" style="edgeStyle=none;shape=connector;rounded=0;orthogonalLoop=1;jettySize=auto;html=1;shadow=0;strokeColor=default;strokeWidth=1;align=center;verticalAlign=middle;fontFamily=Helvetica;fontSize=12;fontColor=default;labelBackgroundColor=none;endArrow=block;endFill=0;endSize=8;" edge="1" parent="WIyWlLk6GJQsqaUBKTNV-1" source="FqUkORN_wXXFwQLzwsCR-11" target="FqUkORN_wXXFwQLzwsCR-25">
          <mxGeometry relative="1" as="geometry" />
        </mxCell>
        <mxCell id="FqUkORN_wXXFwQLzwsCR-11" value="Navigate to Payment Page" style="whiteSpace=wrap;html=1;fontSize=12;rounded=1;labelBackgroundColor=none;" vertex="1" parent="WIyWlLk6GJQsqaUBKTNV-1">
          <mxGeometry x="440" y="230" width="120" height="40" as="geometry" />
        </mxCell>
        <mxCell id="FqUkORN_wXXFwQLzwsCR-19" style="edgeStyle=none;shape=connector;rounded=0;orthogonalLoop=1;jettySize=auto;html=1;shadow=0;strokeColor=default;strokeWidth=1;align=center;verticalAlign=middle;fontFamily=Helvetica;fontSize=12;fontColor=default;labelBackgroundColor=none;endArrow=block;endFill=0;endSize=8;" edge="1" parent="WIyWlLk6GJQsqaUBKTNV-1" source="FqUkORN_wXXFwQLzwsCR-15" target="FqUkORN_wXXFwQLzwsCR-17">
          <mxGeometry relative="1" as="geometry" />
        </mxCell>
        <mxCell id="FqUkORN_wXXFwQLzwsCR-20" value="Reject" style="edgeLabel;html=1;align=center;verticalAlign=middle;resizable=0;points=[];rounded=1;strokeColor=default;fontFamily=Helvetica;fontSize=12;fontColor=default;labelBackgroundColor=none;fillColor=default;" vertex="1" connectable="0" parent="FqUkORN_wXXFwQLzwsCR-19">
          <mxGeometry x="-0.0143" y="-1" relative="1" as="geometry">
            <mxPoint y="-9" as="offset" />
          </mxGeometry>
        </mxCell>
        <mxCell id="FqUkORN_wXXFwQLzwsCR-21" style="edgeStyle=none;shape=connector;rounded=0;orthogonalLoop=1;jettySize=auto;html=1;shadow=0;strokeColor=default;strokeWidth=1;align=center;verticalAlign=middle;fontFamily=Helvetica;fontSize=12;fontColor=default;labelBackgroundColor=none;endArrow=block;endFill=0;endSize=8;" edge="1" parent="WIyWlLk6GJQsqaUBKTNV-1" source="FqUkORN_wXXFwQLzwsCR-15" target="FqUkORN_wXXFwQLzwsCR-18">
          <mxGeometry relative="1" as="geometry" />
        </mxCell>
        <mxCell id="FqUkORN_wXXFwQLzwsCR-22" value="Accept" style="edgeLabel;html=1;align=center;verticalAlign=middle;resizable=0;points=[];rounded=1;strokeColor=default;fontFamily=Helvetica;fontSize=12;fontColor=default;labelBackgroundColor=none;fillColor=default;" vertex="1" connectable="0" parent="FqUkORN_wXXFwQLzwsCR-21">
          <mxGeometry x="-0.2133" y="-2" relative="1" as="geometry">
            <mxPoint x="22" y="-4" as="offset" />
          </mxGeometry>
        </mxCell>
        <mxCell id="FqUkORN_wXXFwQLzwsCR-15" value="Pending Payment" style="rhombus;whiteSpace=wrap;html=1;fontFamily=Helvetica;fontSize=12;fontColor=default;labelBackgroundColor=none;" vertex="1" parent="WIyWlLk6GJQsqaUBKTNV-1">
          <mxGeometry x="440" y="410" width="120" height="80" as="geometry" />
        </mxCell>
        <mxCell id="FqUkORN_wXXFwQLzwsCR-17" value="Send Warning Messages to user" style="whiteSpace=wrap;html=1;fontSize=12;rounded=1;labelBackgroundColor=none;" vertex="1" parent="WIyWlLk6GJQsqaUBKTNV-1">
          <mxGeometry x="250" y="430" width="120" height="40" as="geometry" />
        </mxCell>
        <mxCell id="FqUkORN_wXXFwQLzwsCR-34" style="edgeStyle=none;shape=connector;rounded=0;orthogonalLoop=1;jettySize=auto;html=1;shadow=0;strokeColor=default;strokeWidth=1;align=center;verticalAlign=middle;fontFamily=Helvetica;fontSize=12;fontColor=default;labelBackgroundColor=none;endArrow=block;endFill=0;endSize=8;" edge="1" parent="WIyWlLk6GJQsqaUBKTNV-1" source="FqUkORN_wXXFwQLzwsCR-18" target="FqUkORN_wXXFwQLzwsCR-33">
          <mxGeometry relative="1" as="geometry" />
        </mxCell>
        <mxCell id="FqUkORN_wXXFwQLzwsCR-18" value="Send Receipt to user" style="whiteSpace=wrap;html=1;fontSize=12;rounded=1;labelBackgroundColor=none;" vertex="1" parent="WIyWlLk6GJQsqaUBKTNV-1">
          <mxGeometry x="440" y="550" width="120" height="40" as="geometry" />
        </mxCell>
        <mxCell id="FqUkORN_wXXFwQLzwsCR-28" style="edgeStyle=none;shape=connector;rounded=0;orthogonalLoop=1;jettySize=auto;html=1;shadow=0;strokeColor=default;strokeWidth=1;align=center;verticalAlign=middle;fontFamily=Helvetica;fontSize=12;fontColor=default;labelBackgroundColor=none;endArrow=block;endFill=0;endSize=8;" edge="1" parent="WIyWlLk6GJQsqaUBKTNV-1" source="FqUkORN_wXXFwQLzwsCR-25" target="FqUkORN_wXXFwQLzwsCR-27">
          <mxGeometry relative="1" as="geometry" />
        </mxCell>
        <mxCell id="FqUkORN_wXXFwQLzwsCR-29" style="edgeStyle=none;shape=connector;rounded=0;orthogonalLoop=1;jettySize=auto;html=1;shadow=0;strokeColor=default;strokeWidth=1;align=center;verticalAlign=middle;fontFamily=Helvetica;fontSize=12;fontColor=default;labelBackgroundColor=none;endArrow=block;endFill=0;endSize=8;" edge="1" parent="WIyWlLk6GJQsqaUBKTNV-1" source="FqUkORN_wXXFwQLzwsCR-25" target="FqUkORN_wXXFwQLzwsCR-15">
          <mxGeometry relative="1" as="geometry" />
        </mxCell>
        <mxCell id="FqUkORN_wXXFwQLzwsCR-25" value="Filter Payment by Pending, Rejected, Finished" style="shape=parallelogram;perimeter=parallelogramPerimeter;whiteSpace=wrap;html=1;fixedSize=1;rounded=0;strokeColor=default;align=center;verticalAlign=middle;fontFamily=Helvetica;fontSize=12;fontColor=default;labelBackgroundColor=none;fillColor=default;" vertex="1" parent="WIyWlLk6GJQsqaUBKTNV-1">
          <mxGeometry x="430" y="310" width="130" height="60" as="geometry" />
        </mxCell>
        <mxCell id="FqUkORN_wXXFwQLzwsCR-27" value="Generate Payment Report" style="shape=document;whiteSpace=wrap;html=1;boundedLbl=1;rounded=1;strokeColor=default;align=center;verticalAlign=middle;fontFamily=Helvetica;fontSize=12;fontColor=default;labelBackgroundColor=none;fillColor=default;" vertex="1" parent="WIyWlLk6GJQsqaUBKTNV-1">
          <mxGeometry x="610" y="315" width="110" height="50" as="geometry" />
        </mxCell>
        <mxCell id="FqUkORN_wXXFwQLzwsCR-36" style="edgeStyle=none;shape=connector;rounded=0;orthogonalLoop=1;jettySize=auto;html=1;shadow=0;strokeColor=default;strokeWidth=1;align=center;verticalAlign=middle;fontFamily=Helvetica;fontSize=12;fontColor=default;labelBackgroundColor=none;endArrow=block;endFill=0;endSize=8;" edge="1" parent="WIyWlLk6GJQsqaUBKTNV-1" source="FqUkORN_wXXFwQLzwsCR-33" target="FqUkORN_wXXFwQLzwsCR-35">
          <mxGeometry relative="1" as="geometry" />
        </mxCell>
        <mxCell id="FqUkORN_wXXFwQLzwsCR-33" value="Logout" style="whiteSpace=wrap;html=1;fontSize=12;rounded=1;labelBackgroundColor=none;" vertex="1" parent="WIyWlLk6GJQsqaUBKTNV-1">
          <mxGeometry x="440" y="650" width="120" height="40" as="geometry" />
        </mxCell>
        <mxCell id="FqUkORN_wXXFwQLzwsCR-35" value="End" style="ellipse;whiteSpace=wrap;html=1;fontSize=12;" vertex="1" parent="WIyWlLk6GJQsqaUBKTNV-1">
          <mxGeometry x="440" y="760" width="120" height="50" as="geometry" />
        </mxCell>
      </root>
    </mxGraphModel>
  </diagram>
</mxfile>
